<?xml version="1.0" encoding="UTF-8" standalone="no"?>
<!DOCTYPE svg PUBLIC "-//W3C//DTD SVG 1.1//EN" "http://www.w3.org/Graphics/SVG/1.1/DTD/svg11.dtd">
<svg width="100%" height="100%" viewBox="0 0 1962 1962" version="1.1" xmlns="http://www.w3.org/2000/svg" xmlns:xlink="http://www.w3.org/1999/xlink" xml:space="preserve" xmlns:serif="http://www.serif.com/" style="fill-rule:evenodd;clip-rule:evenodd;stroke-linecap:round;stroke-linejoin:round;">
    <g transform="matrix(1,0,0,1,-0.00370029,0.00285794)">
        <g transform="matrix(1.02251,0,0,1.02234,-1086.19,-913.626)">
            <g>
                <circle cx="2021.6" cy="1852.98" r="959.321" style="fill:rgb(39,37,38);fill-opacity:0.8;"/>
            </g>
        </g>
    </g>
    <g transform="matrix(1,0,0,1,-0.00370029,0.00285794)">
        <g transform="matrix(18.9312,0,0,18.9312,375.205,375.203)">
            <path d="M40,20.267L40,43.733C40,44.611 39.278,45.333 38.4,45.333L9.6,45.333C8.722,45.333 8,44.611 8,43.733L8,20.267C8,19.389 8.722,18.667 9.6,18.667L38.4,18.667C39.278,18.667 40,19.389 40,20.267ZM40,32L53.376,20.853C53.663,20.614 54.026,20.483 54.4,20.483C55.278,20.483 56,21.205 56,22.083L56,41.917C55.999,42.794 55.277,43.515 54.4,43.515C54.026,43.515 53.663,43.383 53.376,43.144L40,32Z" style="fill:none;fill-rule:nonzero;stroke:white;stroke-opacity:0.9;stroke-width:4.53px;"/>
        </g>
    </g>
</svg>
